<svg width="100" height="200" version="1.1" viewBox="0 0 100 200" xmlns="http://www.w3.org/2000/svg" xmlns:xlink="http://www.w3.org/1999/xlink">
	<style>

		:root {
			--hue: 49;
			--sat: 99%;
		}

		#courbes {
			fill: hsl(var(--hue), var(--sat), 46%);
			fill-opacity: 1
		}

		#arc {
			fill: none;
			stroke: hsl(var(--hue), var(--sat), 56%);
			stroke-width: 5;
			stroke-opacity: 1
		}
		rect {
			fill: hsl(var(--hue), var(--sat), 56%);
			fill: transparent;
		}
	</style>
	<defs>
		<g id="forme">
			<path id="courbes" d="m-5 0c-1.6808 0.3414-3.3374 0.84959-4.9648 1.5156 5.3941 0 9.787 83.335 10.053 188.01-6e-3 -1.1175-0.0196-2.2177-0.0273-3.3301 4e-3 0.82013 6e-3 1.6478 0.01 2.4707 0.0258 3.5821 0.043 7.1833 0.043 10.816 0-110.17-2.2899-199.48-5.1133-199.48zm5.1133 199.48c0-60.875-22.271-110.22-49.742-110.22-0.1707 3.3617-0.25781 6.7728-0.25781 10.225 27.614 0 50 44.772 50 100zc0-71.652-21.379-129.74-47.752-129.74-0.48697 3.1313-0.8994 6.3291-1.2324 9.584 27.053 0 48.984 53.793 48.984 120.15zc0-81.554-19.685-147.67-43.967-147.67-0.76972 2.8339-1.4729 5.7512-2.1055 8.7422 25.444 0 46.072 62.198 46.072 138.92zc0-90.359-17.275-163.61-38.584-163.61-1.019 2.4694-1.9784 5.0392-2.877 7.6992 22.898 0 41.461 69.803 41.461 155.91zc0-97.845-14.239-177.16-31.805-177.16-1.2347 2.0379-2.4198 4.1911-3.5508 6.4531 19.526 0 35.355 76.43 35.355 170.71zm-0.043-10.816c-0.71118-98.754-11.089-177.11-23.791-177.11-1.4169 1.5394-2.793 3.2107-4.123 5.0078 14.957 0 27.171 76.86 27.92 173.51-2e-3 -0.46858-4e-3 -0.9366-6e-3 -1.4043zm-0.01-2.4707c-0.52172-101.75-6.9459-182.22-14.816-182.22-1.5656 0.97394-3.0983 2.0982-4.5938 3.3633 10.296 0 18.718 78.943 19.41 178.85zm0.0527-186.71v200c0-110.17 2.2899-199.48 5.1133-199.48-1.6808-0.3414-3.3874-0.51562-5.1133-0.51562zm0 200c0-97.845 14.239-177.16 31.805-177.16-1.235-2.0385-2.5193-3.9603-3.8496-5.7578-14.956 7e-3 -27.169 76.864-27.918 173.51-0.0204 3.1216-0.0371 6.2507-0.0371 9.4121zc0-90.356 17.274-163.6 38.582-163.61-1.019-2.4694-2.0955-4.8395-3.2266-7.1016-19.526 0-35.355 76.43-35.355 170.71zc0-81.551 19.684-147.66 43.965-147.67-0.76955-2.8332-1.6056-5.5847-2.5039-8.2441-22.898 0-41.461 69.803-41.461 155.91zc0-71.652 21.379-129.74 47.752-129.74-0.48693-3.1313-1.0491-6.1965-1.6816-9.1875-25.443 3e-3 -46.07 62.2-46.07 138.92zc0-60.875 22.271-110.22 49.742-110.22-0.17066-3.361-0.42488-6.6735-0.75781-9.9277-27.053 0-48.984 53.793-48.984 120.15zm10.076-197.97c-5.3933 0.0191-9.7851 83.347-10.051 188.01 6e-3 -1.1175 0.0196-2.2177 0.0273-3.3301 0.52172-101.75 6.9459-182.22 14.816-182.22 0.39141 0.24348 0.78075 0.49568 1.168 0.75781-1.9356-1.31-3.9253-2.3902-5.959-3.2227-5.6e-4 -2.3e-4 -1e-3 2.4e-4 -2e-3 0zm-10.023 184.68c-4e-3 0.82013-6e-3 1.6478-0.01 2.4707 0.71118-98.754 11.089-177.11 23.791-177.11-1.7715-1.9248-3.6074-3.6422-5.5-5.1348 0.37845 0.29852 0.75504 0.60756 1.1289 0.92383-10.296 0-18.718 78.943-19.41 178.85z" />
			<path id="arc" d="m-0 0c-27.614 0-50 44.772-50 100 27.614 0 50 44.772 50 100 0-55.228 22.386-100 50-100 0-55.228-22.386-100-50-100z" />
		</g>
		<clipPath id="masque">
			<rect x="0" y="0" width="100" height="200" />
		</clipPath>
	</defs>
	<g>
		<rect x="-1" y="-1" width="102" height="202" />
		<use transform="translate(0 -100)" xlink:href="#forme" />
		<use transform="translate(100 -100)" xlink:href="#forme" />
		<use transform="translate(50 0)" xlink:href="#forme" />
		<use transform="translate(0 100)" xlink:href="#forme" />
		<use transform="translate(100 100)" xlink:href="#forme" />
	</g>
</svg>